<mxfile host="app.diagrams.net" agent="Mozilla/5.0 (Windows NT 10.0; Win64; x64) AppleWebKit/537.36 (KHTML, like Gecko) Chrome/134.0.0.0 Safari/537.36" version="26.1.3">
  <diagram name="Página-1" id="DXIpQVb5y31p_lEZ1D8Z">
    <mxGraphModel dx="954" dy="566" grid="1" gridSize="10" guides="1" tooltips="1" connect="1" arrows="1" fold="1" page="1" pageScale="1" pageWidth="827" pageHeight="1169" math="0" shadow="0">
      <root>
        <mxCell id="0" />
        <mxCell id="1" parent="0" />
        <mxCell id="Ez4gp_2cdKdV4mxjFs-Q-8" value="" style="rounded=0;whiteSpace=wrap;html=1;" vertex="1" parent="1">
          <mxGeometry x="170" y="20" width="490" height="450" as="geometry" />
        </mxCell>
        <mxCell id="Ez4gp_2cdKdV4mxjFs-Q-12" style="edgeStyle=orthogonalEdgeStyle;rounded=0;orthogonalLoop=1;jettySize=auto;html=1;exitX=0.5;exitY=0.5;exitDx=0;exitDy=0;exitPerimeter=0;entryX=0;entryY=0.5;entryDx=0;entryDy=0;endArrow=none;startFill=0;" edge="1" parent="1" source="Ez4gp_2cdKdV4mxjFs-Q-7" target="Ez4gp_2cdKdV4mxjFs-Q-11">
          <mxGeometry relative="1" as="geometry" />
        </mxCell>
        <mxCell id="Ez4gp_2cdKdV4mxjFs-Q-7" value="Gestão" style="shape=umlActor;verticalLabelPosition=bottom;verticalAlign=top;html=1;outlineConnect=0;" vertex="1" parent="1">
          <mxGeometry x="100" y="220" width="30" height="60" as="geometry" />
        </mxCell>
        <mxCell id="Ez4gp_2cdKdV4mxjFs-Q-9" value="Requisito-13 GESTÃO GERA ATESTADOS QUE PODEM:" style="text;html=1;align=center;verticalAlign=middle;whiteSpace=wrap;rounded=0;fontStyle=1" vertex="1" parent="1">
          <mxGeometry x="286" y="26" width="255" height="30" as="geometry" />
        </mxCell>
        <mxCell id="Ez4gp_2cdKdV4mxjFs-Q-11" value="Gerar Atestado" style="ellipse;whiteSpace=wrap;html=1;" vertex="1" parent="1">
          <mxGeometry x="220" y="210" width="120" height="80" as="geometry" />
        </mxCell>
        <mxCell id="Ez4gp_2cdKdV4mxjFs-Q-17" style="edgeStyle=orthogonalEdgeStyle;rounded=0;orthogonalLoop=1;jettySize=auto;html=1;exitX=0;exitY=1;exitDx=0;exitDy=0;entryX=1;entryY=0;entryDx=0;entryDy=0;dashed=1;" edge="1" parent="1" source="Ez4gp_2cdKdV4mxjFs-Q-13" target="Ez4gp_2cdKdV4mxjFs-Q-11">
          <mxGeometry relative="1" as="geometry" />
        </mxCell>
        <mxCell id="Ez4gp_2cdKdV4mxjFs-Q-21" value="&amp;lt;&amp;lt;extends&amp;gt;&amp;gt;" style="edgeLabel;html=1;align=center;verticalAlign=middle;resizable=0;points=[];" vertex="1" connectable="0" parent="Ez4gp_2cdKdV4mxjFs-Q-17">
          <mxGeometry x="-0.3526" y="1" relative="1" as="geometry">
            <mxPoint as="offset" />
          </mxGeometry>
        </mxCell>
        <mxCell id="Ez4gp_2cdKdV4mxjFs-Q-13" value="Desempenho escolar" style="ellipse;whiteSpace=wrap;html=1;" vertex="1" parent="1">
          <mxGeometry x="400" y="80" width="120" height="80" as="geometry" />
        </mxCell>
        <mxCell id="Ez4gp_2cdKdV4mxjFs-Q-18" style="edgeStyle=orthogonalEdgeStyle;rounded=0;orthogonalLoop=1;jettySize=auto;html=1;exitX=0;exitY=0.5;exitDx=0;exitDy=0;entryX=1;entryY=0.5;entryDx=0;entryDy=0;dashed=1;" edge="1" parent="1" source="Ez4gp_2cdKdV4mxjFs-Q-14" target="Ez4gp_2cdKdV4mxjFs-Q-11">
          <mxGeometry relative="1" as="geometry" />
        </mxCell>
        <mxCell id="Ez4gp_2cdKdV4mxjFs-Q-22" value="&amp;lt;&amp;lt;extends&amp;gt;&amp;gt;" style="edgeLabel;html=1;align=center;verticalAlign=middle;resizable=0;points=[];" vertex="1" connectable="0" parent="Ez4gp_2cdKdV4mxjFs-Q-18">
          <mxGeometry x="-0.4" y="-2" relative="1" as="geometry">
            <mxPoint as="offset" />
          </mxGeometry>
        </mxCell>
        <mxCell id="Ez4gp_2cdKdV4mxjFs-Q-14" value="Frequência" style="ellipse;whiteSpace=wrap;html=1;" vertex="1" parent="1">
          <mxGeometry x="490" y="180" width="120" height="80" as="geometry" />
        </mxCell>
        <mxCell id="Ez4gp_2cdKdV4mxjFs-Q-19" style="edgeStyle=orthogonalEdgeStyle;rounded=0;orthogonalLoop=1;jettySize=auto;html=1;exitX=0;exitY=0.5;exitDx=0;exitDy=0;entryX=1;entryY=1;entryDx=0;entryDy=0;dashed=1;" edge="1" parent="1" source="Ez4gp_2cdKdV4mxjFs-Q-15" target="Ez4gp_2cdKdV4mxjFs-Q-11">
          <mxGeometry relative="1" as="geometry" />
        </mxCell>
        <mxCell id="Ez4gp_2cdKdV4mxjFs-Q-23" value="&amp;lt;&amp;lt;extends&amp;gt;&amp;gt;" style="edgeLabel;html=1;align=center;verticalAlign=middle;resizable=0;points=[];" vertex="1" connectable="0" parent="Ez4gp_2cdKdV4mxjFs-Q-19">
          <mxGeometry x="-0.3633" y="3" relative="1" as="geometry">
            <mxPoint as="offset" />
          </mxGeometry>
        </mxCell>
        <mxCell id="Ez4gp_2cdKdV4mxjFs-Q-15" value="Comparecimento" style="ellipse;whiteSpace=wrap;html=1;" vertex="1" parent="1">
          <mxGeometry x="490" y="300" width="120" height="80" as="geometry" />
        </mxCell>
        <mxCell id="Ez4gp_2cdKdV4mxjFs-Q-20" style="edgeStyle=orthogonalEdgeStyle;rounded=0;orthogonalLoop=1;jettySize=auto;html=1;exitX=0;exitY=0.5;exitDx=0;exitDy=0;entryX=0.5;entryY=1;entryDx=0;entryDy=0;dashed=1;" edge="1" parent="1" source="Ez4gp_2cdKdV4mxjFs-Q-16" target="Ez4gp_2cdKdV4mxjFs-Q-11">
          <mxGeometry relative="1" as="geometry" />
        </mxCell>
        <mxCell id="Ez4gp_2cdKdV4mxjFs-Q-24" value="&amp;lt;&amp;lt;extends&amp;gt;&amp;gt;" style="edgeLabel;html=1;align=center;verticalAlign=middle;resizable=0;points=[];" vertex="1" connectable="0" parent="Ez4gp_2cdKdV4mxjFs-Q-20">
          <mxGeometry x="-0.4621" y="-2" relative="1" as="geometry">
            <mxPoint as="offset" />
          </mxGeometry>
        </mxCell>
        <mxCell id="Ez4gp_2cdKdV4mxjFs-Q-16" value="Matrícula" style="ellipse;whiteSpace=wrap;html=1;" vertex="1" parent="1">
          <mxGeometry x="414" y="380" width="120" height="80" as="geometry" />
        </mxCell>
      </root>
    </mxGraphModel>
  </diagram>
</mxfile>
